<svg xmlns="http://www.w3.org/2000/svg" width="107.03" height="35" viewBox="0 0 107.03 35"><rect class="svg__rect" x="0" y="0" width="57.08" height="35" fill="#1D4289"/><rect class="svg__rect" x="55.08" y="0" width="51.95" height="35" fill="#C80F2E"/><path class="svg__text" d="M15.70 22L14.22 22L14.22 13.47L15.70 13.47L19.51 19.54L19.51 13.47L20.98 13.47L20.98 22L19.50 22L15.70 15.95L15.70 22ZM28.84 22L25.73 22L25.73 13.47L28.65 13.47Q30.10 13.47 30.85 14.05Q31.61 14.63 31.61 15.78L31.61 15.78Q31.61 16.36 31.29 16.83Q30.98 17.30 30.37 17.56L30.37 17.56Q31.06 17.75 31.43 18.26Q31.81 18.78 31.81 19.51L31.81 19.51Q31.81 20.71 31.04 21.36Q30.27 22 28.84 22L28.84 22ZM27.21 18.15L27.21 20.82L28.85 20.82Q29.55 20.82 29.94 20.47Q30.34 20.13 30.34 19.51L30.34 19.51Q30.34 18.18 28.98 18.15L28.98 18.15L27.21 18.15ZM27.21 14.66L27.21 17.06L28.66 17.06Q29.35 17.06 29.74 16.75Q30.13 16.43 30.13 15.86L30.13 15.86Q30.13 15.23 29.77 14.95Q29.41 14.66 28.65 14.66L28.65 14.66L27.21 14.66ZM37.06 22L35.52 22L38.74 13.47L40.07 13.47L43.30 22L41.76 22L41.06 20.01L37.75 20.01L37.06 22ZM39.41 15.28L38.17 18.82L40.64 18.82L39.41 15.28Z" fill="#FFFFFF"/><path class="svg__text" d="M68.84 17.80L68.84 17.80Q68.84 16.54 69.44 15.54Q70.04 14.55 71.09 13.99Q72.14 13.43 73.46 13.43L73.46 13.43Q74.61 13.43 75.53 13.84Q76.46 14.25 77.07 15.02L77.07 15.02L75.56 16.39Q74.75 15.40 73.58 15.40L73.58 15.40Q72.89 15.40 72.36 15.70Q71.83 16 71.53 16.54Q71.24 17.09 71.24 17.80L71.24 17.80Q71.24 18.51 71.53 19.05Q71.83 19.60 72.36 19.90Q72.89 20.20 73.58 20.20L73.58 20.20Q74.75 20.20 75.56 19.22L75.56 19.22L77.07 20.58Q76.46 21.35 75.54 21.76Q74.61 22.17 73.46 22.17L73.46 22.17Q72.14 22.17 71.09 21.61Q70.04 21.05 69.44 20.05Q68.84 19.06 68.84 17.80ZM87.99 22L81.61 22L81.61 13.60L83.99 13.60L83.99 20.11L87.99 20.11L87.99 22ZM94.79 22L92.41 22L92.41 13.60L94.79 13.60L94.79 22Z" fill="#FFFFFF" x="68.08"/></svg>